HIERARCHY
ROOT Hips
{
  OFFSET 0 0.240689 0
  CHANNELS 6 Xposition Yposition Zposition Zrotation Xrotation Yrotation
  JOINT Bip01_Spine0
  {
    OFFSET 0 -24.7459 49.7988
    CHANNELS 6 Xposition Yposition Zposition Zrotation Xrotation Yrotation
    JOINT Bip01_Pelvis
    {
      OFFSET 0 0 0
      CHANNELS 6 Xposition Yposition Zposition Zrotation Xrotation Yrotation
      JOINT Bip01_Spine0_Tail
      {
        OFFSET -6.47486 -3.86022 0
        CHANNELS 6 Xposition Yposition Zposition Zrotation Xrotation Yrotation
        JOINT Bip01_Spine0_Tail1
        {
          OFFSET 10.3837 -0.00825882 0
          CHANNELS 6 Xposition Yposition Zposition Zrotation Xrotation Yrotation
          JOINT Bip01_Spine0_Tail2
          {
            OFFSET 10.3837 -0.00826263 0
            CHANNELS 6 Xposition Yposition Zposition Zrotation Xrotation Yrotation
            JOINT Bip01_Spine0_Tail3
            {
              OFFSET 10.3837 -0.00825882 0
              CHANNELS 6 Xposition Yposition Zposition Zrotation Xrotation Yrotation
              JOINT Bip01_Spine0_Tail4
              {
                OFFSET 10.3837 -0.00826263 0
                CHANNELS 6 Xposition Yposition Zposition Zrotation Xrotation Yrotation
                End Site
                {
                  OFFSET 0 0 0
                }
              }
            }
          }
        }
      }
      JOINT Bip01_R_Thigh
      {
        OFFSET 0 -1.52588e-005 -8.75617
        CHANNELS 6 Xposition Yposition Zposition Zrotation Xrotation Yrotation
        JOINT Bip01_R_Calf
        {
          OFFSET 19.7638 0 0
          CHANNELS 6 Xposition Yposition Zposition Zrotation Xrotation Yrotation
          JOINT Bip01_R_Foot
          {
            OFFSET 18.6534 0 0
            CHANNELS 6 Xposition Yposition Zposition Zrotation Xrotation Yrotation
            JOINT Bip01_R_Toe0
            {
              OFFSET 5.09145 13.9567 0
              CHANNELS 6 Xposition Yposition Zposition Zrotation Xrotation Yrotation
              JOINT Bip01_R_Toe01
              {
                OFFSET 4.28803 0 0
                CHANNELS 6 Xposition Yposition Zposition Zrotation Xrotation Yrotation
                JOINT Bip01_R_Toe02
                {
                  OFFSET 3.85801 0 0
                  CHANNELS 6 Xposition Yposition Zposition Zrotation Xrotation Yrotation
                  End Site
                  {
                    OFFSET 0 0 0
                  }
                }
              }
            }
          }
        }
      }
      JOINT Bip01_L_Thigh
      {
        OFFSET 0 1.52588e-005 8.75617
        CHANNELS 6 Xposition Yposition Zposition Zrotation Xrotation Yrotation
        JOINT Bip01_L_Calf
        {
          OFFSET 19.7638 0 0
          CHANNELS 6 Xposition Yposition Zposition Zrotation Xrotation Yrotation
          JOINT Bip01_L_Foot
          {
            OFFSET 18.6534 0 0
            CHANNELS 6 Xposition Yposition Zposition Zrotation Xrotation Yrotation
            JOINT Bip01_L_Toe0
            {
              OFFSET 5.09144 13.9567 0
              CHANNELS 6 Xposition Yposition Zposition Zrotation Xrotation Yrotation
              JOINT Bip01_L_Toe01
              {
                OFFSET 4.28802 0 0
                CHANNELS 6 Xposition Yposition Zposition Zrotation Xrotation Yrotation
                JOINT Bip01_L_Toe02
                {
                  OFFSET 3.85801 0 0
                  CHANNELS 6 Xposition Yposition Zposition Zrotation Xrotation Yrotation
                  End Site
                  {
                    OFFSET 0 0 0
                  }
                }
              }
            }
          }
        }
      }
      JOINT Bip01_Spine
      {
        OFFSET 9.14835 -0.00640869 -1.1e-005
        CHANNELS 6 Xposition Yposition Zposition Zrotation Xrotation Yrotation
        JOINT Bip01_Spine1
        {
          OFFSET 8.04366 -0.00638199 0
          CHANNELS 6 Xposition Yposition Zposition Zrotation Xrotation Yrotation
          JOINT Bip01_Spine2
          {
            OFFSET 8.04367 -0.00639343 0
            CHANNELS 6 Xposition Yposition Zposition Zrotation Xrotation Yrotation
            JOINT Bip01_Spine3
            {
              OFFSET 8.04304 -0.00831222 0
              CHANNELS 6 Xposition Yposition Zposition Zrotation Xrotation Yrotation
              JOINT Bip01_Neck
              {
                OFFSET 10.6685 1.06813 0
                CHANNELS 6 Xposition Yposition Zposition Zrotation Xrotation Yrotation
                JOINT Bip01_R_Clavicle
                {
                  OFFSET -3.21661 -4.89635 -9.04802
                  CHANNELS 6 Xposition Yposition Zposition Zrotation Xrotation Yrotation
                  JOINT Bip01_R_UpperArm
                  {
                    OFFSET 19.0492 0 0
                    CHANNELS 6 Xposition Yposition Zposition Zrotation Xrotation Yrotation
                    JOINT Bip01_R_Forearm
                    {
                      OFFSET 10.3706 0 0
                      CHANNELS 6 Xposition Yposition Zposition Zrotation Xrotation Yrotation
                      JOINT Bip01_R_Hand
                      {
                        OFFSET 22.8632 0 0
                        CHANNELS 6 Xposition Yposition Zposition Zrotation Xrotation Yrotation
                        JOINT Bip01_R_Finger0
                        {
                          OFFSET 6.48259 0.103651 0.504496
                          CHANNELS 6 Xposition Yposition Zposition Zrotation Xrotation Yrotation
                          JOINT Bip01_R_Finger01
                          {
                            OFFSET 3.66847 0 0
                            CHANNELS 6 Xposition Yposition Zposition Zrotation Xrotation Yrotation
                            End Site
                            {
                              OFFSET 0 0 0
                            }
                          }
                        }
                      }
                    }
                  }
                }
                JOINT Bip01_L_Clavicle
                {
                  OFFSET -3.21661 -4.89641 9.04797
                  CHANNELS 6 Xposition Yposition Zposition Zrotation Xrotation Yrotation
                  JOINT Bip01_L_UpperArm
                  {
                    OFFSET 19.0492 0 0
                    CHANNELS 6 Xposition Yposition Zposition Zrotation Xrotation Yrotation
                    JOINT Bip01_L_Forearm
                    {
                      OFFSET 10.3706 0 0
                      CHANNELS 6 Xposition Yposition Zposition Zrotation Xrotation Yrotation
                      JOINT Bip01_L_Hand
                      {
                        OFFSET 22.8631 0 0
                        CHANNELS 6 Xposition Yposition Zposition Zrotation Xrotation Yrotation
                        JOINT Bip01_L_Finger0
                        {
                          OFFSET 6.48257 0.103655 -0.504492
                          CHANNELS 6 Xposition Yposition Zposition Zrotation Xrotation Yrotation
                          JOINT Bip01_L_Finger01
                          {
                            OFFSET 3.66844 0 0
                            CHANNELS 6 Xposition Yposition Zposition Zrotation Xrotation Yrotation
                            End Site
                            {
                              OFFSET 0 0 0
                            }
                          }
                        }
                      }
                    }
                  }
                }
                JOINT Bip01_Neck1
                {
                  OFFSET 7.52459 -0.00656509 0
                  CHANNELS 6 Xposition Yposition Zposition Zrotation Xrotation Yrotation
                  JOINT Bip01_Neck2
                  {
                    OFFSET 8.4783 -0.00588226 0
                    CHANNELS 6 Xposition Yposition Zposition Zrotation Xrotation Yrotation
                    JOINT Bip01_Head
                    {
                      OFFSET 8.41606 0 0
                      CHANNELS 6 Xposition Yposition Zposition Zrotation Xrotation Yrotation
                      JOINT EyesBlue
                      {
                        OFFSET 0 0 0
                        CHANNELS 6 Xposition Yposition Zposition Zrotation Xrotation Yrotation
                        JOINT EyesBlue_2
                        {
                          OFFSET 0 -0.500007 0
                          CHANNELS 6 Xposition Yposition Zposition Zrotation Xrotation Yrotation
                          End Site
                          {
                            OFFSET 0 0 0
                          }
                        }
                      }
                      JOINT Bip01_Head2_Eyeleds
                      {
                        OFFSET 6.52751 7.61746 2.2e-005
                        CHANNELS 6 Xposition Yposition Zposition Zrotation Xrotation Yrotation
                        End Site
                        {
                          OFFSET 0 0 0
                        }
                      }
                      JOINT Bip01_Head_Muzzle
                      {
                        OFFSET 2.88628 13.9448 3.88994
                        CHANNELS 6 Xposition Yposition Zposition Zrotation Xrotation Yrotation
                        End Site
                        {
                          OFFSET 0 0 0
                        }
                      }
                      JOINT Bip01_Head1_Jaw
                      {
                        OFFSET 0.271065 1.32405 0
                        CHANNELS 6 Xposition Yposition Zposition Zrotation Xrotation Yrotation
                        JOINT _Bip01_Head11_TungeControler
                        {
                          OFFSET 4.61616 5.82872 0
                          CHANNELS 6 Xposition Yposition Zposition Zrotation Xrotation Yrotation
                          JOINT _Bip01_Ponytail3_tunge
                          {
                            OFFSET 5.17785 2.98805 0
                            CHANNELS 6 Xposition Yposition Zposition Zrotation Xrotation Yrotation
                            JOINT Bip01_Ponytail31
                            {
                              OFFSET 5.57569 0 0
                              CHANNELS 6 Xposition Yposition Zposition Zrotation Xrotation Yrotation
                              JOINT Bip01_Ponytail32
                              {
                                OFFSET 2.93165 0 0
                                CHANNELS 6 Xposition Yposition Zposition Zrotation Xrotation Yrotation
                                JOINT Bip01_Ponytail3Nub
                                {
                                  OFFSET 3.30155 0 0
                                  CHANNELS 6 Xposition Yposition Zposition Zrotation Xrotation Yrotation
                                  End Site
                                  {
                                    OFFSET 0 0 0
                                  }
                                }
                              }
                            }
                          }
                        }
                        JOINT Bip01_Head_JawNub
                        {
                          OFFSET 15.5776 -0.000389099 0
                          CHANNELS 6 Xposition Yposition Zposition Zrotation Xrotation Yrotation
                          End Site
                          {
                            OFFSET 0 0 0
                          }
                        }
                      }
                      JOINT Bip01_Ponytail2
                      {
                        OFFSET 9.40334 1.03973 -6.51764
                        CHANNELS 6 Xposition Yposition Zposition Zrotation Xrotation Yrotation
                        JOINT Bip01_Ponytail21
                        {
                          OFFSET 2.77018 -0.00640106 1.33514e-005
                          CHANNELS 6 Xposition Yposition Zposition Zrotation Xrotation Yrotation
                          End Site
                          {
                            OFFSET 0 0 0
                          }
                        }
                      }
                      JOINT Bip01_Ponytail1
                      {
                        OFFSET 9.40368 1.03969 6.51768
                        CHANNELS 6 Xposition Yposition Zposition Zrotation Xrotation Yrotation
                        JOINT Bip01_Ponytail11
                        {
                          OFFSET 2.77018 -0.00640487 0
                          CHANNELS 6 Xposition Yposition Zposition Zrotation Xrotation Yrotation
                          End Site
                          {
                            OFFSET 0 0 0
                          }
                        }
                      }
                    }
                  }
                }
              }
            }
          }
        }
      }
    }
  }
}
MOTION
Frames:	4
Frame Time:	0.0333333
5.65741 1e-006 -4.79793e-007 -0 -90 -0 -0.469764 -28.7008 45.9894 90.7084 -0.17498 96.455 0 0 0 -90 0.000101747 -82.352 -6.41762 -3.85879 -0.861755 142.982 -4.62133 6.09884 10.377 -0.005374 2.1e-005 -34.1078 0.000883696 0.00124106 10.3784 -0.006643 -1.77636e-015 -31.7822 -2.31636e-005 9.62312e-005 10.3795 -0.007298 0.000152 -39.4251 0.000372641 0.00104861 10.3791 -0.007079 5.6e-005 -11.6709 0.000640771 0.000565466 1e-005 -1.1e-005 -8.75617 -130.036 -3.88306 178.982 19.7638 3.55271e-015 -1e-006 -85.7687 -1.20614e-005 -0.00039998 18.6534 7.10543e-015 3.55271e-015 8.00544 -2.29057 -6.70887 5.09143 13.9567 -1.54922e-008 106.813 1.36338 -3.23994 4.288 9.76996e-015 3.55271e-015 25.1985 -2.95424e-006 -9.40058e-006 3.85799 -8.88178e-016 3.55271e-015 -45 -2.2171e-005 -5.43736e-006 -1.1e-005 7e-006 8.75617 -131.866 2.94574 -163.343 19.7638 -5.32907e-015 -1.77636e-015 -86.3447 -8.22052e-006 -0.000400083 18.6534 3.55271e-015 -1e-006 -5.52988 3.2645 -0.94508 5.09143 13.9567 -1e-006 99.0597 -5.59834 -0.710725 4.288 -1e-006 1e-006 54.4989 0.00116837 -0.000377933 3.85799 -8.74412e-013 -2e-006 -45 -2.9909e-005 -2.93854e-005 9.06656 -0.006267 1.21748 -2.72397 0.27543 -7.50934 8.04403 -0.006355 0.000671 2.21313 0.168092 0.709382 8.04471 -0.006259 0.000854 5.61802 -1.09509 0.507511 8.04419 -0.008224 0.000499 -6.86622 0.03722 0.200801 10.6677 1.06841 9.18015e-007 -22.298 1.11698e-005 0.518595 -2.35595 -5.33909 -9.06232 -156.669 -73.7771 131.312 19.0492 7e-006 -1e-006 100.469 -2.11117 -88.2529 10.3706 -9.76996e-015 0 -73.7269 -7.8927e-005 -0.000541076 22.8631 -1.06581e-014 3e-006 -50.3863 40.5782 22.0487 6.48256 0.103653 0.504499 -28.7107 -12.108 -9.74616 3.66843 -9.32587e-015 1e-006 40.3608 1.56818e-005 4.26461e-006 -2.4648 -5.33895 9.03313 -159.479 79.4525 -121.289 19.0492 -1e-006 0 90.9045 20.1534 103.036 10.3706 -1e-006 6.2439e-013 -112.538 0.000185723 -0.000630296 22.8631 -8e-006 -3e-006 -18.0939 -20.4172 -5.86605 6.48257 0.103653 -0.504494 -48.0364 8.7658 13.3178 3.66843 1e-006 -1e-006 40.107 1.64235e-005 -1.28886e-005 7.52525 -0.006637 3.60002e-005 -9.15306 -0.00275307 0.631986 8.475 -0.006574 2.80001e-005 -0.797892 -0.020031 0.628726 8.41604 -1e-006 -3e-006 -56.1752 -1.16031 1.55291 -6e-006 3e-006 -7.00001e-006 -23.1098 1.37701e-015 90 -1.9158e-006 -0.499999 1.9382e-006 -82.304 90 172.304 0 0 0 -106.006 -1.52588e-005 -180 4.77424 13.7959 3.88993 -22.989 1.37021e-015 90 0 0 0 -85.3358 -1.52588e-005 -180 0 0 0 -120.289 3.29277e-006 -6.71528e-006 0 0 0 133.74 6.88174e-005 -4.54875e-007 0 0 0 1.83152 -2.68044e-005 2.21336e-006 0 0 0 -17.65 -3.55387e-005 -1.28597e-005 0 0 0 -26.1943 -4.95688e-006 -2.15306e-006 15.5776 -0.000398 -6.99995e-006 -3.18055e-015 0 3.97569e-016 9.40547 1.0401 -6.51669 25.0742 -55.741 70.7264 2.77379 -0.004741 0.001875 -20.6521 7.3568 17.0646 9.40581 1.04003 6.51671 25.0736 55.742 -70.7251 2.77379 -0.004703 -0.001816 -20.6518 -7.35528 -17.0612 
6.09261 1e-006 -4.39776e-007 -0 -90 -0 -0.569551 -28.7008 46.3681 90.8622 -0.203729 98.1577 0 0 0 -90 0.000347636 -82.7701 -6.42365 -3.85879 -0.814896 142.766 -4.38831 5.74921 10.377 -0.005374 2.1e-005 -32.3251 0.000921877 0.00121297 10.3784 -0.006643 -4.44089e-015 -31.9993 -2.35281e-005 9.61428e-005 10.3795 -0.007298 0.000152 -38.8294 0.000383523 0.00104468 10.3791 -0.007079 5.6e-005 -12.6524 0.000630991 0.00057636 1e-005 -1.1e-005 -8.75617 -122.567 0.0193377 177.05 19.7638 8.88178e-015 -1e-006 -89.7613 -1.16649e-005 -0.000399748 18.6534 1.42109e-014 -7.10543e-015 21.5778 -2.151 -2.63127 5.09143 13.9567 -5.00267e-007 100.084 2.28764 -1.67083 4.288 1.77636e-015 3.55271e-015 20.0464 -1.9537e-005 -1.06026e-005 3.85799 -4.44089e-015 3.55271e-015 -45 -9.50866e-006 5.75169e-006 -1.1e-005 7e-006 8.75617 -134.988 1.89509 -163.245 19.7638 -3.55271e-015 1.77636e-015 -84.9951 -1.76413e-005 -0.000399779 18.6534 0 -1e-006 -8.56329 3.31591 -0.701155 5.09143 13.9567 -1e-006 99.841 -5.88053 -0.787933 4.288 -1e-006 1e-006 53.7187 0.00117398 -0.000362349 3.85799 -8.83737e-013 -2e-006 -45 -3.03785e-005 -2.9774e-005 9.07508 -0.006267 1.15126 -2.84248 0.329758 -7.17484 8.04403 -0.006355 0.000671 2.42105 0.0851084 0.35628 8.04471 -0.006259 0.000854 5.8582 -0.402499 0.254334 8.04419 -0.008224 0.000499 -6.88595 0.0132758 0.0695467 10.6677 1.06841 1.01104e-006 -22.2701 6.46176e-005 0.260606 -2.39882 -5.33573 -9.05302 -157.466 -73.6591 130.836 19.0492 7e-006 -1e-006 104.137 -1.9747 -89.1879 10.3706 -1.77636e-015 7.10543e-015 -77.2361 -4.51975e-005 -0.000546212 22.8631 1.42109e-014 3e-006 -47.7565 42.7638 20.6181 6.48256 0.103653 0.504499 -28.6542 -12.1174 -9.73438 3.66843 -5.32907e-015 1e-006 40.4638 1.59864e-005 4.45657e-006 -2.43686 -5.33557 9.04268 -158.419 78.997 -122.942 19.0492 -1e-006 -1.06581e-014 87.9444 18.7271 104.366 10.3706 -1e-006 6.43042e-013 -116.998 0.000235217 -0.000615423 22.8631 -8e-006 -3e-006 -16.0605 -18.1477 -7.52534 6.48257 0.103653 -0.504494 -46.5393 8.75402 13.0171 3.66843 1e-006 -1e-006 40.107 1.57749e-005 -1.25399e-005 7.52525 -0.006637 3.6e-005 -8.00031 0.000593211 0.224206 8.475 -0.006574 2.8e-005 -0.241183 -0.0122079 0.222014 8.41604 -1e-006 -3e-006 -59.0956 -0.396538 0.488955 -6e-006 3e-006 -7.00001e-006 -23.1098 1.37701e-015 90 -1.91027e-006 -0.499999 1.9377e-006 -82.732 90 172.732 0 0 0 -105.426 -7.01671e-015 -180 4.91947 13.7844 3.88993 -22.989 1.37021e-015 90 0 0 0 -85.3358 -1.52588e-005 -180 0 0 0 -120.289 4.9939e-007 -1.28387e-006 0 0 0 133.74 9.2079e-005 -1.80991e-007 0 0 0 1.83152 -6.55033e-005 2.94843e-006 0 0 0 -17.65 -2.45849e-005 -8.09602e-006 0 0 0 -26.1943 -1.02242e-006 -3.79595e-007 15.5776 -0.000398 -6.99999e-006 1.59028e-015 -2.48481e-017 9.93923e-017 9.40547 1.0401 -6.51669 27.683 -57.2649 74.049 2.77379 -0.004741 0.001875 -23.8282 9.50107 18.7453 9.40581 1.04003 6.51671 27.6833 57.2655 -74.0484 2.77379 -0.004703 -0.001816 -23.8277 -9.49894 -18.7414 
6.52778 1e-006 -3.99761e-007 -0 -90 -0 -0.516645 -28.7008 46.643 90.7836 -0.175238 99.7141 0 0 0 -90 0.000129074 -83.3494 -6.43147 -3.85879 -0.749846 142.526 -4.0566 5.27225 10.377 -0.005374 2.1e-005 -30.2853 0.000964466 0.00117939 10.3784 -0.006643 -2.66454e-015 -32.2363 -2.39256e-005 9.60446e-005 10.3795 -0.007298 0.000152 -38.1907 0.000395145 0.00104034 10.3791 -0.007079 5.6e-005 -13.7052 0.000620294 0.000587857 1e-005 -1.1e-005 -8.75617 -115.906 2.95233 174.742 19.7638 0 -1e-006 -92.9145 8.82832e-006 -0.000399838 18.6534 -1.42109e-014 -3.55271e-015 32.7067 -1.29419 0.933669 5.09143 13.9567 -1.00803e-006 93.6153 3.01091 -0.0874966 4.288 1.95399e-014 -3.55271e-015 15.1108 -1.99255e-005 -1.19481e-005 3.85799 -1.86517e-014 0 -45 -8.37216e-006 5.52808e-006 -1.1e-005 7e-006 8.75617 -137.36 0.955007 -163.163 19.7638 7.10543e-015 -3.55271e-015 -83.4192 -2.86291e-005 -0.000399142 18.6534 -7.10543e-015 -1e-006 -10.3672 3.20223 -0.66413 5.09143 13.9567 -1e-006 100.003 -6.24653 -1.0794 4.288 -1e-006 1e-006 52.6086 0.00118205 -0.000340066 3.85799 -9.37028e-013 -2e-006 -45 -3.13791e-005 -3.06441e-005 9.08614 -0.006267 1.05941 -3.04543 0.369345 -6.6593 8.04403 -0.006355 0.000671 2.64707 -4.76169e-007 -1.72993e-005 8.04471 -0.006259 0.000854 6.1205 -1.48634e-007 -1.73861e-005 8.04419 -0.008224 0.000499 -7.01246 -0.00492824 -0.030655 10.6677 1.06841 1.03167e-006 -22.1632 -1.15623e-005 5.96407e-005 -2.43708 -5.32887 -9.04686 -158.093 -73.6129 130.487 19.0492 7e-006 -1e-006 106.183 -2.89774 -90.5578 10.3706 -8.88178e-016 -7.10543e-015 -82.6886 -1.98303e-005 -0.000545677 22.8631 -1.77636e-014 3e-006 -43.8342 43.2318 19.0227 6.48256 0.103653 0.504499 -28.6261 -12.1218 -9.72908 3.66843 4.44089e-014 1e-006 40.5147 1.63677e-005 4.50162e-006 -2.42877 -5.32872 9.04891 -157.886 78.5214 -124.204 19.0492 -1e-006 -1.42109e-014 87.0282 16.5508 104.7 10.3706 -1e-006 5.92415e-013 -119.989 0.000264861 -0.000599173 22.8631 -8e-006 -3e-006 -13.829 -17.3142 -8.48034 6.48257 0.103653 -0.504494 -44.891 8.93899 12.7253 3.66843 1e-006 -1e-006 40.107 1.57774e-005 -1.26144e-005 7.52525 -0.006637 3.59998e-005 -5.65228 -0.000254737 -0.0214294 8.475 -0.006574 2.79999e-005 0.892114 -0.0118668 -0.0380043 8.41604 -1e-006 -3e-006 -63.4738 0.211522 -0.0708692 -6e-006 3e-006 -7.00001e-006 -23.1098 1.37701e-015 90 -1.90663e-006 -0.499999 1.93756e-006 -5.51704e-007 90 90 0 0 0 -104.846 1.52588e-005 -180 5.06469 13.773 3.88993 -22.989 1.3702e-015 90 0 0 0 -85.3358 -7.01671e-015 -180 0 0 0 -120.289 -1.33282e-006 2.25947e-006 0 0 0 133.74 -0.000222671 -9.44426e-009 0 0 0 1.83152 0.000173171 -7.1164e-006 0 0 0 -17.65 4.52312e-005 1.4971e-005 0 0 0 -26.1943 1.5809e-006 8.03785e-007 15.5776 -0.000398 -7.00002e-006 0 4.96962e-017 -0 9.40547 1.0401 -6.51669 31.4829 -58.42 78.7137 2.77379 -0.004741 0.001875 -26.9983 11.6766 20.7353 9.40581 1.04003 6.51671 31.4827 58.4212 -78.7136 2.77379 -0.004703 -0.001816 -26.9977 -11.675 -20.7315 
6.96298 1e-006 -3.59744e-007 -0 -90 -0 -0.353104 -28.7008 46.8147 90.5342 -0.11346 101.086 0 0 0 -90 0.000429605 -84.0551 -6.44014 -3.85879 -0.670573 142.286 -3.64387 4.69851 10.377 -0.005374 2.1e-005 -28.0914 0.00100891 0.0011416 10.3784 -0.006643 -8.88178e-016 -32.491 -2.43523e-005 9.59373e-005 10.3795 -0.007298 0.000152 -37.516 0.000407367 0.00103561 10.3791 -0.007079 5.6e-005 -14.8178 0.000608763 0.00059979 1e-005 -1.1e-005 -8.75617 -111.134 4.45698 172.464 19.7638 -7.10543e-015 -1e-006 -94.334 1.18558e-005 -0.000399898 18.6534 -1.42109e-014 1.06581e-014 38.9333 -0.356102 3.41448 5.09143 13.9567 -1.42647e-006 90.0046 3.364 0.868582 4.288 3.55271e-015 3.55271e-015 12.3927 -1.94733e-005 -1.26918e-005 3.85799 -3.55271e-015 -7.10543e-015 -45 -8.12652e-006 4.68653e-006 -1.1e-005 7e-006 8.75617 -139.099 0.136973 -163.076 19.7638 -8.88179e-015 -1.77636e-015 -81.7415 -1.32655e-005 -0.000402057 18.6534 -7.10543e-015 -1e-006 -11.1124 2.95254 -0.755435 5.09143 13.9567 -1e-006 99.6335 -6.683 -1.55062 4.288 -1e-006 1e-006 51.2398 0.00119169 -0.000312421 3.85799 -1.00098e-012 -2e-006 -45 -3.28163e-005 -3.19105e-005 9.0984 -0.006267 0.947439 -3.35875 0.409746 -6.01774 8.04403 -0.006355 0.000671 2.83638 -0.0269249 -0.110918 8.04471 -0.006259 0.000854 6.29824 0.0754085 -0.0789534 8.04419 -0.008224 0.000499 -7.28237 -0.0232615 -0.131312 10.6677 1.06841 1.03013e-006 -21.9716 -0.00012795 -0.0437885 -2.4732 -5.31928 -9.04271 -158.623 -73.6325 130.189 19.0492 7e-006 -1e-006 106.975 -4.22394 -92.5448 10.3706 0 0 -88.7044 1.03476e-005 -0.000544429 22.8631 1.42109e-014 3e-006 -39.3063 42.3322 17.2756 6.48256 0.103653 0.504499 -28.6216 -12.1225 -9.72829 3.66843 3.28626e-014 1e-006 40.5229 1.6592e-005 4.54884e-006 -2.43413 -5.31934 9.05304 -157.688 78.0273 -125.237 19.0492 -1e-006 -7.10543e-015 87.4958 13.6379 104.241 10.3706 -1e-006 4.40537e-013 -121.338 0.000273846 -0.00058577 22.8631 -8e-006 -3e-006 -11.7204 -17.5804 -9.06118 6.48257 0.103653 -0.504494 -43.1224 9.31518 12.4416 3.66843 1e-006 -1e-006 40.107 1.75256e-005 -1.40195e-005 7.52525 -0.006637 3.59997e-005 -2.41664 -0.00597859 -0.133331 8.475 -0.006574 2.79997e-005 2.45389 -0.0196378 -0.19489 8.41604 -1e-006 -3e-006 -68.8942 0.855285 -0.279696 -6e-006 3e-006 -7.00001e-006 -23.1098 1.37701e-015 90 -1.9043e-006 -0.499999 1.93758e-006 -5.50473e-007 90 90 0 0 0 -104.265 1.52588e-005 -180 5.20993 13.7615 3.88993 -22.989 1.3702e-015 90 0 0 0 -85.3358 -7.01671e-015 -180 0 0 0 -120.289 -1.78497e-006 3.36142e-006 0 0 0 133.74 -0.000172484 1.28904e-007 0 0 0 1.83152 7.58763e-005 -5.51663e-006 0 0 0 -17.65 8.94182e-005 2.93023e-005 0 0 0 -26.1943 2.53062e-006 1.18092e-006 15.5776 -0.000398 -7.00003e-006 1.59028e-015 0 -0 9.40547 1.0401 -6.51669 36.2316 -59.0734 84.4354 2.77379 -0.004741 0.001875 -30.0789 13.7868 22.9563 9.40581 1.04003 6.51671 36.2301 59.0746 -84.4356 2.77379 -0.004703 -0.001816 -30.0784 -13.7853 -22.9534 
